<mxfile host="app.diagrams.net" modified="2021-10-05T00:33:19.125Z" agent="5.0 (Macintosh; Intel Mac OS X 10_15_7) AppleWebKit/537.36 (KHTML, like Gecko) Chrome/93.0.4577.82 Safari/537.36" etag="WovlTU391-eXgGuLA89X" version="15.4.1" type="github">
  <diagram id="C5RBs43oDa-KdzZeNtuy" name="Page-1">
    <mxGraphModel dx="1474" dy="881" grid="1" gridSize="10" guides="1" tooltips="1" connect="1" arrows="1" fold="1" page="1" pageScale="1" pageWidth="827" pageHeight="1169" math="0" shadow="0">
      <root>
        <mxCell id="WIyWlLk6GJQsqaUBKTNV-0" />
        <mxCell id="WIyWlLk6GJQsqaUBKTNV-1" parent="WIyWlLk6GJQsqaUBKTNV-0" />
        <mxCell id="ua0lLIWspoSkiqZYe9T7-7" value="User (Abstract)" style="swimlane;fontStyle=1;align=center;verticalAlign=top;childLayout=stackLayout;horizontal=1;startSize=26;horizontalStack=0;resizeParent=1;resizeParentMax=0;resizeLast=0;collapsible=1;marginBottom=0;rounded=0;sketch=0;fontColor=#46495D;strokeColor=#788AA3;fillColor=#B2C9AB;" vertex="1" parent="WIyWlLk6GJQsqaUBKTNV-1">
          <mxGeometry x="290" y="30" width="160" height="172" as="geometry" />
        </mxCell>
        <mxCell id="ua0lLIWspoSkiqZYe9T7-8" value="-userName: String&#xa;-password: String&#xa;-firstName: String&#xa;-lastName: String" style="text;strokeColor=none;fillColor=none;align=left;verticalAlign=top;spacingLeft=4;spacingRight=4;overflow=hidden;rotatable=0;points=[[0,0.5],[1,0.5]];portConstraint=eastwest;rounded=0;sketch=0;fontColor=#46495D;" vertex="1" parent="ua0lLIWspoSkiqZYe9T7-7">
          <mxGeometry y="26" width="160" height="64" as="geometry" />
        </mxCell>
        <mxCell id="ua0lLIWspoSkiqZYe9T7-10" value="+getuserName() String&#xa;+getpassword(): String&#xa;+getfirstName(): String&#xa;+getlastName(): String&#xa;+toString(): String&#xa;" style="text;strokeColor=none;fillColor=none;align=left;verticalAlign=top;spacingLeft=4;spacingRight=4;overflow=hidden;rotatable=0;points=[[0,0.5],[1,0.5]];portConstraint=eastwest;rounded=0;sketch=0;fontColor=#46495D;" vertex="1" parent="ua0lLIWspoSkiqZYe9T7-7">
          <mxGeometry y="90" width="160" height="82" as="geometry" />
        </mxCell>
        <mxCell id="ua0lLIWspoSkiqZYe9T7-36" style="edgeStyle=orthogonalEdgeStyle;curved=0;rounded=1;sketch=0;orthogonalLoop=1;jettySize=auto;html=1;exitX=0.5;exitY=0;exitDx=0;exitDy=0;entryX=0.48;entryY=0.375;entryDx=0;entryDy=0;entryPerimeter=0;fontColor=#46495D;strokeColor=#788AA3;fillColor=#B2C9AB;" edge="1" parent="WIyWlLk6GJQsqaUBKTNV-1" source="ua0lLIWspoSkiqZYe9T7-11" target="ua0lLIWspoSkiqZYe9T7-20">
          <mxGeometry relative="1" as="geometry">
            <mxPoint x="119.79999999999995" y="354.36" as="targetPoint" />
            <Array as="points">
              <mxPoint x="120" y="392" />
              <mxPoint x="121" y="392" />
            </Array>
          </mxGeometry>
        </mxCell>
        <mxCell id="ua0lLIWspoSkiqZYe9T7-11" value="&lt;div style=&quot;text-align: center&quot;&gt;&amp;lt;&amp;lt;interface&amp;gt;&amp;gt;&lt;/div&gt;&lt;div style=&quot;text-align: center&quot;&gt;&lt;b&gt;StudentInterface&lt;/b&gt;&lt;/div&gt;&lt;br&gt;&amp;nbsp;+studentViewAllCourses()&lt;br&gt;&amp;nbsp;+StudentViewAvaliableCourses()&lt;br&gt;&amp;nbsp;+StudentRegisterCourse()&lt;br&gt;&amp;nbsp;+StudentWithdrawCourses()&lt;br&gt;&amp;nbsp;+StudentViewAllRegistered()" style="html=1;rounded=0;sketch=0;fontColor=#46495D;strokeColor=#788AA3;fillColor=#B2C9AB;align=left;" vertex="1" parent="WIyWlLk6GJQsqaUBKTNV-1">
          <mxGeometry x="20" y="490" width="200" height="126" as="geometry" />
        </mxCell>
        <mxCell id="ua0lLIWspoSkiqZYe9T7-37" style="edgeStyle=orthogonalEdgeStyle;curved=0;rounded=1;sketch=0;orthogonalLoop=1;jettySize=auto;html=1;exitX=0.5;exitY=0;exitDx=0;exitDy=0;entryX=0.478;entryY=1;entryDx=0;entryDy=0;entryPerimeter=0;fontColor=#46495D;strokeColor=#788AA3;fillColor=#B2C9AB;" edge="1" parent="WIyWlLk6GJQsqaUBKTNV-1" source="ua0lLIWspoSkiqZYe9T7-17" target="ua0lLIWspoSkiqZYe9T7-26">
          <mxGeometry relative="1" as="geometry" />
        </mxCell>
        <mxCell id="ua0lLIWspoSkiqZYe9T7-17" value="&lt;div style=&quot;text-align: center&quot;&gt;&amp;lt;&amp;lt;interface&amp;gt;&amp;gt;&lt;/div&gt;&lt;div style=&quot;text-align: center&quot;&gt;&lt;b&gt;AdminInterface&lt;/b&gt;&lt;/div&gt;&lt;br&gt;&amp;nbsp;+createCourse()&lt;br&gt;&amp;nbsp;+deleteCourse()&lt;br&gt;&amp;nbsp;+editCourse()&lt;br&gt;&amp;nbsp;+displayCourse()&lt;br&gt;&amp;nbsp;+registerCourse()&lt;br&gt;&amp;nbsp;+adminViewAllCourses()&lt;br&gt;&amp;nbsp;+viewAllCourses()&lt;br&gt;&amp;nbsp;+viewRegisteredStudents()&lt;br&gt;&amp;nbsp;+viewAllStudentCourse()&lt;br&gt;&amp;nbsp;+sortCourse()&lt;br&gt;&amp;nbsp;+writeToFileFullCourses()" style="html=1;rounded=0;sketch=0;fontColor=#46495D;strokeColor=#788AA3;fillColor=#B2C9AB;align=left;" vertex="1" parent="WIyWlLk6GJQsqaUBKTNV-1">
          <mxGeometry x="540" y="490" width="170" height="210" as="geometry" />
        </mxCell>
        <mxCell id="ua0lLIWspoSkiqZYe9T7-18" value="Student" style="swimlane;fontStyle=1;align=center;verticalAlign=top;childLayout=stackLayout;horizontal=1;startSize=26;horizontalStack=0;resizeParent=1;resizeParentMax=0;resizeLast=0;collapsible=1;marginBottom=0;rounded=0;sketch=0;fontColor=#46495D;strokeColor=#788AA3;fillColor=#B2C9AB;" vertex="1" parent="WIyWlLk6GJQsqaUBKTNV-1">
          <mxGeometry x="25" y="260" width="200" height="34" as="geometry" />
        </mxCell>
        <mxCell id="ua0lLIWspoSkiqZYe9T7-20" value="" style="line;strokeWidth=1;fillColor=none;align=left;verticalAlign=middle;spacingTop=-1;spacingLeft=3;spacingRight=3;rotatable=0;labelPosition=right;points=[];portConstraint=eastwest;rounded=0;sketch=0;fontColor=#46495D;" vertex="1" parent="ua0lLIWspoSkiqZYe9T7-18">
          <mxGeometry y="26" width="200" height="8" as="geometry" />
        </mxCell>
        <mxCell id="ua0lLIWspoSkiqZYe9T7-23" value="Admin" style="swimlane;fontStyle=1;align=center;verticalAlign=top;childLayout=stackLayout;horizontal=1;startSize=26;horizontalStack=0;resizeParent=1;resizeParentMax=0;resizeLast=0;collapsible=1;marginBottom=0;rounded=0;sketch=0;fontColor=#46495D;strokeColor=#788AA3;fillColor=#B2C9AB;" vertex="1" parent="WIyWlLk6GJQsqaUBKTNV-1">
          <mxGeometry x="520" y="260" width="230" height="120" as="geometry" />
        </mxCell>
        <mxCell id="ua0lLIWspoSkiqZYe9T7-24" value="+registrationManager: ArrayList(Student)&#xa;+courseList: Arraylist(Course)&#xa;" style="text;strokeColor=none;fillColor=none;align=left;verticalAlign=top;spacingLeft=4;spacingRight=4;overflow=hidden;rotatable=0;points=[[0,0.5],[1,0.5]];portConstraint=eastwest;rounded=0;sketch=0;fontColor=#46495D;" vertex="1" parent="ua0lLIWspoSkiqZYe9T7-23">
          <mxGeometry y="26" width="230" height="44" as="geometry" />
        </mxCell>
        <mxCell id="ua0lLIWspoSkiqZYe9T7-25" value="" style="line;strokeWidth=1;fillColor=none;align=left;verticalAlign=middle;spacingTop=-1;spacingLeft=3;spacingRight=3;rotatable=0;labelPosition=right;points=[];portConstraint=eastwest;rounded=0;sketch=0;fontColor=#46495D;" vertex="1" parent="ua0lLIWspoSkiqZYe9T7-23">
          <mxGeometry y="70" width="230" height="8" as="geometry" />
        </mxCell>
        <mxCell id="ua0lLIWspoSkiqZYe9T7-26" value="+getregistrationManager(): ArrayList&#xa;+studentAuthenticator(Student): boolean&#xa;&#xa;" style="text;strokeColor=none;fillColor=none;align=left;verticalAlign=top;spacingLeft=4;spacingRight=4;overflow=hidden;rotatable=0;points=[[0,0.5],[1,0.5]];portConstraint=eastwest;rounded=0;sketch=0;fontColor=#46495D;" vertex="1" parent="ua0lLIWspoSkiqZYe9T7-23">
          <mxGeometry y="78" width="230" height="42" as="geometry" />
        </mxCell>
        <mxCell id="ua0lLIWspoSkiqZYe9T7-55" style="edgeStyle=orthogonalEdgeStyle;curved=0;rounded=1;sketch=0;orthogonalLoop=1;jettySize=auto;html=1;exitX=0.5;exitY=0;exitDx=0;exitDy=0;entryX=0.5;entryY=1.013;entryDx=0;entryDy=0;entryPerimeter=0;fontColor=#46495D;strokeColor=#788AA3;fillColor=#B2C9AB;" edge="1" parent="WIyWlLk6GJQsqaUBKTNV-1" source="ua0lLIWspoSkiqZYe9T7-27" target="ua0lLIWspoSkiqZYe9T7-50">
          <mxGeometry relative="1" as="geometry" />
        </mxCell>
        <mxCell id="ua0lLIWspoSkiqZYe9T7-27" value="Course" style="swimlane;fontStyle=1;align=center;verticalAlign=top;childLayout=stackLayout;horizontal=1;startSize=26;horizontalStack=0;resizeParent=1;resizeParentMax=0;resizeLast=0;collapsible=1;marginBottom=0;rounded=0;sketch=0;fontColor=#46495D;strokeColor=#788AA3;fillColor=#B2C9AB;" vertex="1" parent="WIyWlLk6GJQsqaUBKTNV-1">
          <mxGeometry x="270" y="410" width="200" height="300" as="geometry" />
        </mxCell>
        <mxCell id="ua0lLIWspoSkiqZYe9T7-28" value="+courseName: String&#xa;+courseID: String&#xa;+maxStudents: int&#xa;+currentStudents: int&#xa;+studentList: ArrayList&#xa;+instructorName: String&#xa;+courseSection: int&#xa;+courseLocation: String" style="text;strokeColor=none;fillColor=none;align=left;verticalAlign=top;spacingLeft=4;spacingRight=4;overflow=hidden;rotatable=0;points=[[0,0.5],[1,0.5]];portConstraint=eastwest;rounded=0;sketch=0;fontColor=#46495D;" vertex="1" parent="ua0lLIWspoSkiqZYe9T7-27">
          <mxGeometry y="26" width="200" height="124" as="geometry" />
        </mxCell>
        <mxCell id="ua0lLIWspoSkiqZYe9T7-29" value="" style="line;strokeWidth=1;fillColor=none;align=left;verticalAlign=middle;spacingTop=-1;spacingLeft=3;spacingRight=3;rotatable=0;labelPosition=right;points=[];portConstraint=eastwest;rounded=0;sketch=0;fontColor=#46495D;" vertex="1" parent="ua0lLIWspoSkiqZYe9T7-27">
          <mxGeometry y="150" width="200" height="8" as="geometry" />
        </mxCell>
        <mxCell id="ua0lLIWspoSkiqZYe9T7-30" value="+getCourseName(): String&#xa;+getCourseID: String&#xa;+getMaxStudents: int&#xa;+getCurrentStudents: int&#xa;+getStudentList: ArrayList&#xa;+getCourseSection: int&#xa;+getCourseLocation: String&#xa;+print()&#xa;+StudentPrint()&#xa;" style="text;strokeColor=none;fillColor=none;align=left;verticalAlign=top;spacingLeft=4;spacingRight=4;overflow=hidden;rotatable=0;points=[[0,0.5],[1,0.5]];portConstraint=eastwest;rounded=0;sketch=0;fontColor=#46495D;" vertex="1" parent="ua0lLIWspoSkiqZYe9T7-27">
          <mxGeometry y="158" width="200" height="142" as="geometry" />
        </mxCell>
        <mxCell id="ua0lLIWspoSkiqZYe9T7-38" value="Inherited from User" style="text;html=1;resizable=0;autosize=1;align=center;verticalAlign=middle;points=[];fillColor=none;strokeColor=none;rounded=0;sketch=0;fontColor=#46495D;" vertex="1" parent="WIyWlLk6GJQsqaUBKTNV-1">
          <mxGeometry x="140" y="140" width="120" height="20" as="geometry" />
        </mxCell>
        <mxCell id="ua0lLIWspoSkiqZYe9T7-39" value="Inherited from User" style="text;html=1;resizable=0;autosize=1;align=center;verticalAlign=middle;points=[];fillColor=none;strokeColor=none;rounded=0;sketch=0;fontColor=#46495D;" vertex="1" parent="WIyWlLk6GJQsqaUBKTNV-1">
          <mxGeometry x="490" y="140" width="120" height="20" as="geometry" />
        </mxCell>
        <mxCell id="ua0lLIWspoSkiqZYe9T7-45" style="edgeStyle=orthogonalEdgeStyle;curved=0;rounded=1;sketch=0;orthogonalLoop=1;jettySize=auto;html=1;exitX=1;exitY=0.5;exitDx=0;exitDy=0;entryX=0.5;entryY=0;entryDx=0;entryDy=0;fontColor=#46495D;strokeColor=#788AA3;fillColor=#B2C9AB;" edge="1" parent="WIyWlLk6GJQsqaUBKTNV-1" source="ua0lLIWspoSkiqZYe9T7-10" target="ua0lLIWspoSkiqZYe9T7-23">
          <mxGeometry relative="1" as="geometry" />
        </mxCell>
        <mxCell id="ua0lLIWspoSkiqZYe9T7-46" style="edgeStyle=orthogonalEdgeStyle;curved=0;rounded=1;sketch=0;orthogonalLoop=1;jettySize=auto;html=1;exitX=0;exitY=0.5;exitDx=0;exitDy=0;entryX=0.5;entryY=0;entryDx=0;entryDy=0;fontColor=#46495D;strokeColor=#788AA3;fillColor=#B2C9AB;" edge="1" parent="WIyWlLk6GJQsqaUBKTNV-1" source="ua0lLIWspoSkiqZYe9T7-10" target="ua0lLIWspoSkiqZYe9T7-18">
          <mxGeometry relative="1" as="geometry" />
        </mxCell>
        <mxCell id="ua0lLIWspoSkiqZYe9T7-47" value="Serializable" style="swimlane;fontStyle=1;align=center;verticalAlign=top;childLayout=stackLayout;horizontal=1;startSize=26;horizontalStack=0;resizeParent=1;resizeParentMax=0;resizeLast=0;collapsible=1;marginBottom=0;rounded=0;sketch=0;fontColor=#46495D;strokeColor=#788AA3;fillColor=#B2C9AB;" vertex="1" parent="WIyWlLk6GJQsqaUBKTNV-1">
          <mxGeometry x="290" y="272" width="160" height="80" as="geometry" />
        </mxCell>
        <mxCell id="ua0lLIWspoSkiqZYe9T7-49" value="" style="line;strokeWidth=1;fillColor=none;align=left;verticalAlign=middle;spacingTop=-1;spacingLeft=3;spacingRight=3;rotatable=0;labelPosition=right;points=[];portConstraint=eastwest;rounded=0;sketch=0;fontColor=#46495D;" vertex="1" parent="ua0lLIWspoSkiqZYe9T7-47">
          <mxGeometry y="26" width="160" height="8" as="geometry" />
        </mxCell>
        <mxCell id="ua0lLIWspoSkiqZYe9T7-50" value="+deserialization(): void&#xa;+serialization(): void&#xa;" style="text;strokeColor=none;fillColor=none;align=left;verticalAlign=top;spacingLeft=4;spacingRight=4;overflow=hidden;rotatable=0;points=[[0,0.5],[1,0.5]];portConstraint=eastwest;rounded=0;sketch=0;fontColor=#46495D;" vertex="1" parent="ua0lLIWspoSkiqZYe9T7-47">
          <mxGeometry y="34" width="160" height="46" as="geometry" />
        </mxCell>
        <mxCell id="ua0lLIWspoSkiqZYe9T7-52" style="edgeStyle=orthogonalEdgeStyle;curved=0;rounded=1;sketch=0;orthogonalLoop=1;jettySize=auto;html=1;exitX=0.7;exitY=0.625;exitDx=0;exitDy=0;entryX=0.25;entryY=0;entryDx=0;entryDy=0;fontColor=#46495D;strokeColor=#788AA3;fillColor=#B2C9AB;exitPerimeter=0;" edge="1" parent="WIyWlLk6GJQsqaUBKTNV-1" source="ua0lLIWspoSkiqZYe9T7-20" target="ua0lLIWspoSkiqZYe9T7-27">
          <mxGeometry relative="1" as="geometry">
            <mxPoint x="225" y="324" as="sourcePoint" />
            <Array as="points">
              <mxPoint x="165" y="360" />
              <mxPoint x="320" y="360" />
            </Array>
          </mxGeometry>
        </mxCell>
        <mxCell id="ua0lLIWspoSkiqZYe9T7-53" style="edgeStyle=orthogonalEdgeStyle;curved=0;rounded=1;sketch=0;orthogonalLoop=1;jettySize=auto;html=1;exitX=0;exitY=0.5;exitDx=0;exitDy=0;entryX=0.75;entryY=0;entryDx=0;entryDy=0;fontColor=#46495D;strokeColor=#788AA3;fillColor=#B2C9AB;" edge="1" parent="WIyWlLk6GJQsqaUBKTNV-1" source="ua0lLIWspoSkiqZYe9T7-26" target="ua0lLIWspoSkiqZYe9T7-27">
          <mxGeometry relative="1" as="geometry" />
        </mxCell>
      </root>
    </mxGraphModel>
  </diagram>
</mxfile>
